#!OML:ASF C:\Vicon Data\Big\jianyuan-13\jianyuan\Session 1\Capture.male.ASF
:FULLY-SPECIFIED
:DEGREES
84
root -8.216342 17.428075 -19.907100 10.226973 7.648193 1.006213
lowerback -7.317384 0.558509 -1.783439 
upperback -0.101877 0.867075 0.042672 
thorax 3.971612 0.384494 1.137447 
lowerneck -8.630258 -3.158647 3.762536 
upperneck 4.741603 -4.405876 -3.898059 
head 2.874256 -2.270011 -2.163172 
rclavicle 0.000000 0.000000 
rhumerus -34.549599 -13.447949 -84.108740 
rradius 36.816991 
rwrist 20.490880 
rhand -20.065948 -16.631256 
rfingers 0.000000 
rthumb 6.276136 -46.518251 
lclavicle 0.000000 0.000000 
lhumerus -42.000703 34.058505 68.849489 
lradius 23.757930 
lwrist -63.121525 
lhand -23.160040 -0.871809 
lfingers 0.000000 
lthumb 3.288527 29.082544 
rfemur -14.836522 4.619162 23.277709 
rtibia 21.314334 
rfoot -15.459079 -1.530367 
rtoes -22.237827 
lfemur -31.007804 -9.314561 -17.469251 
ltibia 24.970113 
lfoot -12.650357 4.378302 
ltoes -25.850489 
85
root -8.217350 17.431191 -19.860028 10.233910 7.643043 1.003079
lowerback -7.278847 0.573337 -1.783381 
upperback -0.106665 0.886052 0.043828 
thorax 3.944362 0.394271 1.140028 
lowerneck -8.676682 -3.145590 3.740668 
upperneck 4.795286 -4.385429 -3.917488 
head 2.902386 -2.261245 -2.167798 
rclavicle 0.000000 0.000000 
rhumerus -34.383632 -13.231016 -84.216667 
rradius 36.983264 
rwrist 20.224784 
rhand -20.186975 -16.565394 
rfingers 0.000000 
rthumb 6.159265 -46.455872 
lclavicle 0.000000 0.000000 
lhumerus -42.702715 34.843067 67.860114 
lradius 23.492143 
lwrist -64.295818 
lhand -23.163599 -0.917857 
lfingers 0.000000 
lthumb 3.285094 29.036581 
rfemur -14.570839 4.655654 23.334216 
rtibia 21.102138 
rfoot -15.436042 -1.657354 
rtoes -22.270933 
lfemur -31.020144 -9.301355 -17.472262 
ltibia 24.119494 
lfoot -12.241923 4.491660 
ltoes -25.769805 
86
root -8.218126 17.434621 -19.811995 10.202021 7.604963 1.018507
lowerback -7.207857 0.589437 -1.817224 
upperback -0.098434 0.909477 0.047689 
thorax 3.911707 0.405803 1.164565 
lowerneck -8.752818 -3.114621 3.786796 
upperneck 4.880738 -4.345188 -4.003314 
head 2.945734 -2.244068 -2.207860 
rclavicle 0.000000 0.000000 
rhumerus -34.222159 -13.035158 -84.302286 
rradius 37.131786 
rwrist 20.096468 
rhand -20.262070 -16.489864 
rfingers 0.000000 
rthumb 6.086763 -46.382490 
lclavicle 0.000000 0.000000 
lhumerus -43.433453 35.674130 66.837775 
lradius 23.234836 
lwrist -65.438375 
lhand -23.099141 -0.969471 
lfingers 0.000000 
lthumb 3.347360 28.984005 
rfemur -14.253551 4.687516 23.369190 
rtibia 20.886616 
rfoot -15.410011 -1.748794 
rtoes -22.259111 
lfemur -30.964788 -9.278434 -17.505634 
ltibia 23.273461 
lfoot -11.896323 4.624966 
ltoes -25.729694 
87
root -8.218830 17.439162 -19.763361 10.179820 7.545790 1.046329
lowerback -7.156705 0.623290 -1.854583 
upperback -0.086907 0.958158 0.024819 
thorax 3.893159 0.429799 1.166286 
lowerneck -8.832979 -3.098247 3.873932 
upperneck 4.961156 -4.329591 -4.080715 
head 2.986519 -2.237896 -2.253607 
rclavicle 0.000000 0.000000 
rhumerus -34.071252 -12.906198 -84.397975 
rradius 37.268897 
rwrist 20.141415 
rhand -20.314925 -16.430897 
rfingers 0.000000 
rthumb 6.035731 -46.324962 
lclavicle 0.000000 0.000000 
lhumerus -44.058912 36.229733 65.979695 
lradius 23.023648 
lwrist -66.137575 
lhand -23.008097 -1.008802 
lfingers 0.000000 
lthumb 3.435288 28.943239 
rfemur -13.939785 4.688422 23.387936 
rtibia 20.663597 
rfoot -15.368225 -1.790814 
rtoes -22.199695 
lfemur -30.901614 -9.280501 -17.534416 
ltibia 22.434778 
lfoot -11.671483 4.756670 
ltoes -25.114407 
88
root -8.219089 17.443021 -19.714738 10.183907 7.497134 1.063389
lowerback -7.128978 0.665511 -1.855568 
upperback -0.092658 1.015036 -0.009887 
thorax 3.870329 0.458521 1.136302 
lowerneck -8.841182 -3.093370 3.871628 
upperneck 4.983308 -4.324050 -4.053187 
head 2.996408 -2.233893 -2.244572 
rclavicle 0.000000 0.000000 
rhumerus -33.948388 -12.752797 -84.529112 
rradius 37.445916 
rwrist 19.919119 
rhand -20.425673 -16.412142 
rfingers 0.000000 
rthumb 5.928823 -46.309231 
lclavicle 0.000000 0.000000 
lhumerus -44.647717 36.614832 65.209104 
lradius 22.844394 
lwrist -66.674494 
lhand -22.914422 -0.949864 
lfingers 0.000000 
lthumb 3.525717 29.000760 
rfemur -13.645749 4.658146 23.420339 
rtibia 20.427953 
rfoot -15.311819 -1.800568 
rtoes -22.082630 
lfemur -30.866882 -9.255859 -17.557881 
ltibia 21.619351 
lfoot -11.557859 4.895196 
ltoes -24.243696 
89
root -8.217927 17.445170 -19.666277 10.266493 7.491027 1.051294
lowerback -7.193752 0.675299 -1.843534 
upperback -0.118344 1.026938 -0.007339 
thorax 3.879811 0.464203 1.134137 
lowerneck -8.851064 -3.087418 3.820494 
upperneck 4.987203 -4.311454 -4.039340 
head 3.001308 -2.228285 -2.230557 
rclavicle 0.000000 0.000000 
rhumerus -33.820759 -12.594760 -84.624251 
rradius 37.611940 
rwrist 19.703970 
rhand -20.518600 -16.374164 
rfingers 0.000000 
rthumb 5.839145 -46.273744 
lclavicle 0.000000 0.000000 
lhumerus -45.388900 37.272148 64.230077 
lradius 22.608384 
lwrist -67.551047 
lhand -22.967091 -0.906749 
lfingers 0.000000 
lthumb 3.474873 29.044681 
rfemur -13.443404 4.621644 23.473538 
rtibia 20.180079 
rfoot -15.256268 -1.832192 
rtoes -21.984232 
lfemur -30.933601 -9.263008 -17.558862 
ltibia 20.816778 
lfoot -11.278487 5.183841 
ltoes -25.102757 
90
root -8.217035 17.447932 -19.617347 10.307023 7.475730 1.017500
lowerback -7.217888 0.692760 -1.795564 
upperback -0.139986 1.045818 -0.009766 
thorax 3.871169 0.474388 1.106793 
lowerneck -8.824397 -3.084968 3.807236 
upperneck 5.001147 -4.304523 -4.057899 
head 3.001228 -2.225710 -2.233595 
rclavicle 0.000000 0.000000 
rhumerus -33.688894 -12.332724 -84.724932 
rradius 37.751645 
rwrist 19.556781 
rhand -20.490980 -16.396439 
rfingers 0.000000 
rthumb 5.865794 -46.295217 
lclavicle 0.000000 0.000000 
lhumerus -46.193987 37.980475 63.147806 
lradius 22.410408 
lwrist -68.496106 
lhand -22.844404 -0.846346 
lfingers 0.000000 
lthumb 3.593391 29.103129 
rfemur -13.206760 4.647465 23.546063 
rtibia 19.958225 
rfoot -15.203700 -1.898570 
rtoes -22.024949 
lfemur -30.941531 -9.262153 -17.525807 
ltibia 20.022650 
lfoot -11.139851 5.411583 
ltoes -24.820852 
91
root -8.215147 17.450860 -19.569202 10.276156 7.469541 1.024683
lowerback -7.160889 0.690356 -1.783477 
upperback -0.126273 1.040999 0.001458 
thorax 3.853554 0.472592 1.110363 
lowerneck -8.858893 -3.065173 3.850417 
upperneck 5.026644 -4.276876 -4.180501 
head 3.015231 -2.216649 -2.283170 
rclavicle 0.000000 0.000000 
rhumerus -33.514306 -12.066342 -84.779119 
rradius 37.903858 
rwrist 19.303155 
rhand -20.518692 -16.387233 
rfingers 0.000000 
rthumb 5.839020 -46.286739 
lclavicle 0.000000 0.000000 
lhumerus -47.120571 38.891706 61.910806 
lradius 22.205625 
lwrist -69.650062 
lhand -22.843464 -0.892043 
lfingers 0.000000 
lthumb 3.594305 29.057368 
rfemur -12.883026 4.681966 23.576398 
rtibia 19.735082 
rfoot -15.169256 -1.952549 
rtoes -22.207704 
lfemur -30.860637 -9.285029 -17.547832 
ltibia 19.261825 
lfoot -11.059006 5.628623 
ltoes -23.859335 
